<svg width="42" height="42" viewBox="0 0 42 42" fill="none" xmlns="http://www.w3.org/2000/svg">
<path d="M5.25 10.5H36.75V31.5H5.25V10.5ZM21 15.75C22.3924 15.75 23.7277 16.3031 24.7123 17.2877C25.6969 18.2723 26.25 19.6076 26.25 21C26.25 22.3924 25.6969 23.7277 24.7123 24.7123C23.7277 25.6969 22.3924 26.25 21 26.25C19.6076 26.25 18.2723 25.6969 17.2877 24.7123C16.3031 23.7277 15.75 22.3924 15.75 21C15.75 19.6076 16.3031 18.2723 17.2877 17.2877C18.2723 16.3031 19.6076 15.75 21 15.75ZM12.25 14C12.25 14.9283 11.8813 15.8185 11.2249 16.4749C10.5685 17.1313 9.67826 17.5 8.75 17.5V24.5C9.67826 24.5 10.5685 24.8687 11.2249 25.5251C11.8813 26.1815 12.25 27.0717 12.25 28H29.75C29.75 27.0717 30.1187 26.1815 30.7751 25.5251C31.4315 24.8687 32.3217 24.5 33.25 24.5V17.5C32.3217 17.5 31.4315 17.1313 30.7751 16.4749C30.1187 15.8185 29.75 14.9283 29.75 14H12.25Z" fill="#2F80ED"/>
</svg>
