<svg width="75" height="41" viewBox="0 0 75 41" fill="none" xmlns="http://www.w3.org/2000/svg">
<rect width="75" height="41" rx="2" fill="#2F80ED"/>
<path fill-rule="evenodd" clip-rule="evenodd" d="M37.0037 24.7684V20.6757C37.0037 19.3475 38.0103 18.2675 39.2507 18.2675H47.5025V15.7175C47.5025 14.5081 46.7927 13.4974 45.8212 13.1675V13.1693L42.9207 13.1445L42.8855 13.0416H29.8657L29.618 13.1267L25.0256 13.1232L25.0168 13.086C23.8995 13.2988 23 14.3202 23 15.6342V29.7372C23 31.2126 24.1384 32.4947 25.4437 32.4947H45.1448C46.4501 32.4947 47.5042 31.296 47.5042 29.8206V27.244H39.2524C38.0121 27.244 37.0037 26.0966 37.0037 24.7684Z" fill="white"/>
<path fill-rule="evenodd" clip-rule="evenodd" d="M49.3154 20.204H40.519C39.5896 20.204 38.8359 21.0339 38.8359 22.0571V23.5041C38.8359 24.5255 39.5896 25.3554 40.519 25.3554H49.3154C50.2448 25.3554 51.0002 24.5255 51.0002 23.5041V22.0571C51.0002 21.0321 50.2448 20.204 49.3154 20.204ZM44.1064 23.6708H40.4838V21.8691H44.1064V23.6708Z" fill="white"/>
<path fill-rule="evenodd" clip-rule="evenodd" d="M29.8688 13.0418L41.5184 9.01815L42.8887 13.0418H45.1462C45.3834 13.0418 45.6083 13.0932 45.8244 13.1659L43.3841 6L24.8145 12.2438L25.02 13.0879C25.1588 13.0613 25.3011 13.0435 25.4452 13.0435H29.8688V13.0418Z" fill="white"/>
</svg>
