<svg width="147" height="135" viewBox="0 0 147 135" fill="none" xmlns="http://www.w3.org/2000/svg">
<g clip-path="url(#clip0)">
<path d="M23.3072 76.9819L0 50.3199L69.7352 0L139.47 50.3199L115.79 76.9819H23.3072Z" fill="#2F80ED"/>
<path d="M23.3072 76.9819L0 50.3199L69.7352 0L139.47 50.3199L115.79 76.9819H23.3072Z" fill="#2F80ED"/>
<path d="M136.114 53.6996H0V113.595H136.114V53.6996Z" fill="#6C63FF"/>
<path d="M136.114 53.6996H0V113.595H136.114V53.6996Z" fill="#2F80ED"/>
<path d="M139.47 135H0V50.3199L69.7352 92.7539L139.47 50.3199V135Z" fill="#2F80ED"/>
<path d="M121.679 21.9338L106.887 10.5127L67.7053 61.9689L45.9436 45.1658L34.6016 60.0607L63.757 82.5392L71.2336 88.1816L121.679 21.9338Z" fill="#3AD29F"/>
<path d="M0.587973 31.3339L0.0334473 31.6065L0.0972159 31.4923L0.0485504 31.5081L0.116794 31.4572L7.58014 18.0826L11.3953 21.3583L14.6682 24.4096L13.7284 24.8717L14.7849 26.7482L0.587973 31.3339Z" fill="url(#paint0_linear)"/>
<path d="M11.0171 21.7084L14.0087 24.5015L0.449463 31.2896L7.6652 21.9767L11.0171 21.7084Z" fill="#6C63FF"/>
<path opacity="0.2" d="M11.0171 21.7084L14.0087 24.5015L0.449463 31.2896L7.6652 21.9767L11.0171 21.7084Z" fill="black"/>
<path d="M7.52778 18.7123L0.449463 31.2896L11.0171 21.7084L7.52778 18.7123Z" fill="#2F80ED"/>
<path d="M14.096 26.6639L0.464111 31.1983L11.8595 22.6324L14.096 26.6639Z" fill="#2F80ED"/>
<path d="M128.089 7.27203L125.103 12.486L147 16.0765L132.896 6.18658L128.089 7.27203Z" fill="#6C63FF"/>
<path opacity="0.2" d="M128.089 7.27203L125.103 12.486L147 16.0765L132.896 6.18658L128.089 7.27203Z" fill="black"/>
<path d="M131.685 1.55707L147 16.0764L128.089 7.27194L131.685 1.55707Z" fill="#2F80ED"/>
<path d="M125.91 15.5505L146.94 15.9552L127.308 8.93292L125.91 15.5505Z" fill="#2F80ED"/>
</g>
<defs>
<linearGradient id="paint0_linear" x1="11.0976" y1="31.1044" x2="2.62776" y2="23.9329" gradientUnits="userSpaceOnUse">
<stop stop-color="#808080" stop-opacity="0.25"/>
<stop offset="0.53514" stop-color="#808080" stop-opacity="0.12"/>
<stop offset="1" stop-color="#808080" stop-opacity="0.1"/>
</linearGradient>
<clipPath id="clip0">
<rect width="147" height="135" fill="white"/>
</clipPath>
</defs>
</svg>
